<svg width="192" height="60" viewBox="0 0 192 60" fill="none" xmlns="http://www.w3.org/2000/svg">
<path d="M2.45973 17.5297C0.642395 18.7381 -0.422764 21.2972 1.5851 24.357C3.59296 27.4167 32.2784 48.0703 33.3303 48.6438C34.3823 49.2172 35.4347 49.3127 38.1105 47.3053C40.7883 45.297 63.159 29.6099 63.7362 29.1381C64.6548 28.3878 64.8841 26.5563 63.7362 25.6959C63.7362 25.6959 36.635 44.628 35.7476 45.393C34.8602 46.1579 33.4797 44.915 33.7393 43.2896C33.9998 41.6642 34.1908 41.4727 37.633 38.9864C41.0753 36.5001 60.5923 22.6928 61.4778 22.0825C62.4805 21.3913 62.5047 20.1696 60.8618 19.0889C58.5783 17.5869 33.9019 1.20436 33.076 0.630892C32.2482 0.0574188 31.1031 -0.464522 29.3822 0.682897C27.6613 1.83079 5.79845 15.3091 2.45973 17.5297Z" fill="url(#paint0_linear_37_9651)"/>
<path d="M33.3304 50.6586C32.6402 50.2818 20.054 41.2613 10.912 34.2378V48.8819C10.9045 59.5718 43.1688 65.2833 53.8582 52.1422V38.1457C47.2919 42.777 39.6112 48.195 38.1106 49.3197C35.4347 51.3276 34.3824 51.2321 33.3304 50.6586Z" fill="url(#paint1_linear_37_9651)"/>
<path d="M46.9836 34.6018C46.9836 34.6018 51.7808 36.8531 52.1221 45.9129L49.798 45.3148L47.9381 49.0015C47.1514 39.0809 42.8676 37.6427 42.8676 37.6427L46.9836 34.6018Z" fill="url(#paint2_linear_37_9651)"/>
<path d="M89.5493 36H86.0356L78.0796 23.9782V36H74.5659V18.4567H78.0796L86.0356 30.5036V18.4567H89.5493V36ZM105.947 28.7468C105.947 29.2487 105.913 29.7005 105.847 30.102H95.6819C95.7656 31.1059 96.117 31.8923 96.736 32.4612C97.3551 33.0301 98.1164 33.3145 99.0199 33.3145C100.325 33.3145 101.254 32.754 101.806 31.633H105.596C105.194 32.9715 104.424 34.0758 103.287 34.9459C102.149 35.7992 100.752 36.2259 99.0952 36.2259C97.7567 36.2259 96.552 35.9331 95.4811 35.3475C94.427 34.7451 93.5988 33.9002 92.9965 32.8126C92.4109 31.725 92.118 30.4701 92.118 29.0479C92.118 27.609 92.4109 26.3457 92.9965 25.2582C93.5821 24.1706 94.4019 23.334 95.456 22.7484C96.5102 22.1628 97.7232 21.87 99.0952 21.87C100.417 21.87 101.597 22.1544 102.634 22.7233C103.688 23.2922 104.5 24.1037 105.068 25.1578C105.654 26.1952 105.947 27.3915 105.947 28.7468ZM102.308 27.7428C102.291 26.8393 101.965 26.1199 101.329 25.5844C100.693 25.0323 99.9151 24.7562 98.9948 24.7562C98.1248 24.7562 97.3886 25.0239 96.7862 25.5593C96.2006 26.078 95.8409 26.8059 95.707 27.7428H102.308ZM116.191 36L113.33 31.6832L110.795 36H107.031L111.573 29.0228L106.981 22.0959H110.946L113.782 26.3876L116.342 22.0959H120.107L115.539 29.0228L120.157 36H116.191ZM125.579 33.2142H131.351V36H122.065V18.4818H125.579V33.2142ZM146.51 28.7468C146.51 29.2487 146.477 29.7005 146.41 30.102H136.245C136.329 31.1059 136.68 31.8923 137.299 32.4612C137.918 33.0301 138.68 33.3145 139.583 33.3145C140.888 33.3145 141.817 32.754 142.369 31.633H146.159C145.757 32.9715 144.988 34.0758 143.85 34.9459C142.712 35.7992 141.315 36.2259 139.658 36.2259C138.32 36.2259 137.115 35.9331 136.044 35.3475C134.99 34.7451 134.162 33.9002 133.56 32.8126C132.974 31.725 132.681 30.4701 132.681 29.0479C132.681 27.609 132.974 26.3457 133.56 25.2582C134.145 24.1706 134.965 23.334 136.019 22.7484C137.073 22.1628 138.286 21.87 139.658 21.87C140.98 21.87 142.16 22.1544 143.197 22.7233C144.251 23.2922 145.063 24.1037 145.632 25.1578C146.217 26.1952 146.51 27.3915 146.51 28.7468ZM142.871 27.7428C142.854 26.8393 142.528 26.1199 141.892 25.5844C141.256 25.0323 140.478 24.7562 139.558 24.7562C138.688 24.7562 137.952 25.0239 137.349 25.5593C136.764 26.078 136.404 26.8059 136.27 27.7428H142.871ZM148.171 28.9977C148.171 27.5923 148.447 26.3457 149 25.2582C149.568 24.1706 150.33 23.334 151.283 22.7484C152.254 22.1628 153.333 21.87 154.521 21.87C155.558 21.87 156.462 22.0791 157.232 22.4974C158.018 22.9157 158.645 23.4428 159.114 24.0786V22.0959H162.653V36H159.114V33.9671C158.662 34.6196 158.035 35.1634 157.232 35.5984C156.445 36.0167 155.533 36.2259 154.496 36.2259C153.325 36.2259 152.254 35.9247 151.283 35.3224C150.33 34.72 149.568 33.8751 149 32.7875C148.447 31.6832 148.171 30.4199 148.171 28.9977ZM159.114 29.0479C159.114 28.1946 158.947 27.4668 158.612 26.8644C158.277 26.2453 157.826 25.7769 157.257 25.459C156.688 25.1243 156.077 24.957 155.425 24.957C154.772 24.957 154.17 25.116 153.617 25.4339C153.065 25.7518 152.614 26.2203 152.262 26.8393C151.928 27.4417 151.76 28.1611 151.76 28.9977C151.76 29.8343 151.928 30.5705 152.262 31.2063C152.614 31.8254 153.065 32.3023 153.617 32.6369C154.186 32.9715 154.789 33.1389 155.425 33.1389C156.077 33.1389 156.688 32.9799 157.257 32.662C157.826 32.3274 158.277 31.8589 158.612 31.2565C158.947 30.6375 159.114 29.9013 159.114 29.0479ZM169.598 24.2543C170.05 23.5181 170.635 22.9408 171.355 22.5225C172.091 22.1042 172.928 21.8951 173.865 21.8951V25.5844H172.936C171.832 25.5844 170.995 25.8438 170.426 26.3625C169.874 26.8812 169.598 27.7847 169.598 29.073V36H166.084V22.0959H169.598V24.2543ZM183.936 21.8951C185.593 21.8951 186.931 22.4221 187.952 23.4762C188.973 24.5136 189.483 25.9693 189.483 27.8432V36H185.969V28.3201C185.969 27.2158 185.693 26.3708 185.141 25.7852C184.589 25.1829 183.836 24.8817 182.882 24.8817C181.912 24.8817 181.142 25.1829 180.573 25.7852C180.021 26.3708 179.745 27.2158 179.745 28.3201V36H176.231V22.0959H179.745V23.8276C180.214 23.2253 180.807 22.7568 181.527 22.4221C182.263 22.0708 183.066 21.8951 183.936 21.8951Z" fill="url(#paint3_linear_37_9651)"/>
<path d="M75.7248 44.447H74.7613V48.7736H73.6749V44.447H73.0609V43.5685H73.6749V43.2001C73.6749 42.6018 73.8324 42.1673 74.1472 41.8965C74.4684 41.6194 74.9691 41.4808 75.6492 41.4808V42.3783C75.3218 42.3783 75.0919 42.4412 74.9596 42.5672C74.8274 42.6868 74.7613 42.8978 74.7613 43.2001V43.5685H75.7248V44.447ZM81.393 43.5685V48.7736H80.3161V48.1595C80.1461 48.3737 79.9225 48.5437 79.6454 48.6696C79.3746 48.7893 79.0849 48.8491 78.7763 48.8491C78.367 48.8491 77.9986 48.7641 77.6711 48.5941C77.3499 48.424 77.0948 48.1721 76.9059 47.8384C76.7233 47.5046 76.632 47.1015 76.632 46.6292V43.5685H77.6994V46.4686C77.6994 46.9346 77.8159 47.2936 78.0489 47.5455C78.282 47.7911 78.6 47.9139 79.003 47.9139C79.4061 47.9139 79.7241 47.7911 79.9571 47.5455C80.1965 47.2936 80.3161 46.9346 80.3161 46.4686V43.5685H81.393ZM84.0703 44.447V47.3282C84.0703 47.5235 84.1144 47.6652 84.2026 47.7533C84.297 47.8352 84.4545 47.8761 84.6749 47.8761H85.3361V48.7736H84.4859C84.001 48.7736 83.6295 48.6602 83.3713 48.4335C83.1131 48.2068 82.9839 47.8384 82.9839 47.3282V44.447H82.3699V43.5685H82.9839V42.2743H84.0703V43.5685H85.3361V44.447H84.0703ZM91.0425 43.5685V48.7736H89.9656V48.1595C89.7956 48.3737 89.572 48.5437 89.2949 48.6696C89.0241 48.7893 88.7344 48.8491 88.4258 48.8491C88.0165 48.8491 87.6481 48.7641 87.3206 48.5941C86.9994 48.424 86.7443 48.1721 86.5554 47.8384C86.3728 47.5046 86.2815 47.1015 86.2815 46.6292V43.5685H87.3489V46.4686C87.3489 46.9346 87.4654 47.2936 87.6984 47.5455C87.9314 47.7911 88.2495 47.9139 88.6525 47.9139C89.0556 47.9139 89.3736 47.7911 89.6066 47.5455C89.8459 47.2936 89.9656 46.9346 89.9656 46.4686V43.5685H91.0425ZM93.5403 44.3242C93.6977 44.0597 93.9056 43.8551 94.1638 43.7102C94.4283 43.5591 94.74 43.4835 95.099 43.4835V44.5982H94.825C94.4031 44.5982 94.0819 44.7053 93.8615 44.9194C93.6474 45.1335 93.5403 45.5051 93.5403 46.0341V48.7736H92.4634V43.5685H93.5403V44.3242ZM96.6368 42.8789C96.4415 42.8789 96.2778 42.8128 96.1455 42.6805C96.0133 42.5483 95.9472 42.3846 95.9472 42.1893C95.9472 41.9941 96.0133 41.8304 96.1455 41.6981C96.2778 41.5659 96.4415 41.4997 96.6368 41.4997C96.8257 41.4997 96.9863 41.5659 97.1185 41.6981C97.2508 41.8304 97.3169 41.9941 97.3169 42.1893C97.3169 42.3846 97.2508 42.5483 97.1185 42.6805C96.9863 42.8128 96.8257 42.8789 96.6368 42.8789ZM97.1658 43.5685V48.7736H96.0889V43.5685H97.1658ZM100.469 48.8586C100.06 48.8586 99.6912 48.7862 99.3637 48.6413C99.0425 48.4902 98.7875 48.2886 98.5985 48.0367C98.4096 47.7785 98.3089 47.492 98.2963 47.1771H99.411C99.4298 47.3975 99.5338 47.5833 99.7227 47.7344C99.9179 47.8793 100.16 47.9517 100.45 47.9517C100.752 47.9517 100.985 47.895 101.149 47.7817C101.319 47.662 101.404 47.5109 101.404 47.3282C101.404 47.133 101.31 46.9882 101.121 46.8937C100.938 46.7992 100.645 46.6953 100.242 46.582C99.8518 46.4749 99.5338 46.371 99.2881 46.2702C99.0425 46.1695 98.8284 46.0152 98.6458 45.8073C98.4694 45.5995 98.3813 45.3256 98.3813 44.9855C98.3813 44.7084 98.4631 44.4565 98.6269 44.2298C98.7906 43.9968 99.0236 43.8141 99.3259 43.6819C99.6345 43.5496 99.9872 43.4835 100.384 43.4835C100.976 43.4835 101.451 43.6346 101.81 43.9369C102.176 44.2329 102.371 44.6391 102.396 45.1555H101.319C101.3 44.9225 101.206 44.7367 101.036 44.5982C100.866 44.4596 100.636 44.3904 100.346 44.3904C100.063 44.3904 99.8455 44.4439 99.6943 44.551C99.5432 44.658 99.4676 44.7997 99.4676 44.9761C99.4676 45.1146 99.518 45.2311 99.6188 45.3256C99.7195 45.42 99.8423 45.4956 99.9872 45.5523C100.132 45.6027 100.346 45.6688 100.63 45.7507C101.007 45.8514 101.316 45.9553 101.555 46.0624C101.801 46.1632 102.012 46.3143 102.188 46.5158C102.365 46.7174 102.456 46.985 102.462 47.3188C102.462 47.6148 102.38 47.8793 102.217 48.1123C102.053 48.3453 101.82 48.5279 101.518 48.6602C101.222 48.7925 100.872 48.8586 100.469 48.8586ZM104.882 44.447V47.3282C104.882 47.5235 104.926 47.6652 105.014 47.7533C105.109 47.8352 105.266 47.8761 105.487 47.8761H106.148V48.7736H105.298C104.813 48.7736 104.441 48.6602 104.183 48.4335C103.925 48.2068 103.796 47.8384 103.796 47.3282V44.447H103.182V43.5685H103.796V42.2743H104.882V43.5685H106.148V44.447H104.882ZM107.688 42.8789C107.493 42.8789 107.33 42.8128 107.197 42.6805C107.065 42.5483 106.999 42.3846 106.999 42.1893C106.999 41.9941 107.065 41.8304 107.197 41.6981C107.33 41.5659 107.493 41.4997 107.688 41.4997C107.877 41.4997 108.038 41.5659 108.17 41.6981C108.302 41.8304 108.369 41.9941 108.369 42.1893C108.369 42.3846 108.302 42.5483 108.17 42.6805C108.038 42.8128 107.877 42.8789 107.688 42.8789ZM108.217 43.5685V48.7736H107.141V43.5685H108.217ZM109.272 46.1663C109.272 45.631 109.379 45.1618 109.594 44.7588C109.814 44.3494 110.116 44.0345 110.5 43.8141C110.885 43.5937 111.325 43.4835 111.823 43.4835C112.453 43.4835 112.972 43.6346 113.382 43.9369C113.797 44.2329 114.078 44.658 114.222 45.2122H113.06C112.966 44.954 112.815 44.7525 112.607 44.6076C112.399 44.4628 112.138 44.3904 111.823 44.3904C111.382 44.3904 111.029 44.5478 110.765 44.8627C110.507 45.1713 110.378 45.6058 110.378 46.1663C110.378 46.7268 110.507 47.1645 110.765 47.4794C111.029 47.7943 111.382 47.9517 111.823 47.9517C112.446 47.9517 112.859 47.6778 113.06 47.1299H114.222C114.071 47.6589 113.788 48.0808 113.372 48.3957C112.957 48.7043 112.44 48.8586 111.823 48.8586C111.325 48.8586 110.885 48.7484 110.5 48.5279C110.116 48.3012 109.814 47.9863 109.594 47.5833C109.379 47.1739 109.272 46.7016 109.272 46.1663ZM118.826 41.7831V48.7736H117.749V41.7831H118.826ZM125.011 46.0435C125.011 46.2387 124.998 46.4151 124.973 46.5725H120.996C121.027 46.9882 121.182 47.3219 121.459 47.5739C121.736 47.8258 122.076 47.9517 122.479 47.9517C123.058 47.9517 123.468 47.7093 123.707 47.2243H124.869C124.712 47.703 124.425 48.0966 124.009 48.4051C123.6 48.7074 123.09 48.8586 122.479 48.8586C121.982 48.8586 121.534 48.7484 121.138 48.5279C120.747 48.3012 120.439 47.9863 120.212 47.5833C119.991 47.1739 119.881 46.7016 119.881 46.1663C119.881 45.631 119.988 45.1618 120.202 44.7588C120.423 44.3494 120.728 44.0345 121.119 43.8141C121.516 43.5937 121.969 43.4835 122.479 43.4835C122.97 43.4835 123.408 43.5906 123.792 43.8047C124.176 44.0188 124.475 44.3211 124.69 44.7116C124.904 45.0957 125.011 45.5397 125.011 46.0435ZM123.887 45.7034C123.88 45.3067 123.739 44.9886 123.462 44.7493C123.184 44.51 122.841 44.3904 122.432 44.3904C122.06 44.3904 121.742 44.51 121.478 44.7493C121.213 44.9824 121.056 45.3004 121.005 45.7034H123.887ZM125.712 46.1474C125.712 45.6247 125.819 45.1618 126.033 44.7588C126.253 44.3557 126.549 44.044 126.921 43.8236C127.299 43.5969 127.714 43.4835 128.168 43.4835C128.577 43.4835 128.933 43.5654 129.235 43.7291C129.544 43.8866 129.789 44.0849 129.972 44.3242V43.5685H131.058V48.7736H129.972V47.9989C129.789 48.2446 129.541 48.4492 129.226 48.613C128.911 48.7767 128.552 48.8586 128.149 48.8586C127.702 48.8586 127.292 48.7452 126.921 48.5185C126.549 48.2855 126.253 47.9643 126.033 47.555C125.819 47.1393 125.712 46.6701 125.712 46.1474ZM129.972 46.1663C129.972 45.8073 129.896 45.4956 129.745 45.2311C129.6 44.9666 129.408 44.7651 129.169 44.6265C128.93 44.488 128.671 44.4187 128.394 44.4187C128.117 44.4187 127.859 44.488 127.62 44.6265C127.38 44.7588 127.185 44.9572 127.034 45.2217C126.889 45.4799 126.817 45.7885 126.817 46.1474C126.817 46.5064 126.889 46.8213 127.034 47.0921C127.185 47.3629 127.38 47.5707 127.62 47.7155C127.865 47.8541 128.124 47.9234 128.394 47.9234C128.671 47.9234 128.93 47.8541 129.169 47.7155C129.408 47.577 129.6 47.3755 129.745 47.111C129.896 46.8402 129.972 46.5253 129.972 46.1663ZM133.55 44.3242C133.707 44.0597 133.915 43.8551 134.173 43.7102C134.438 43.5591 134.749 43.4835 135.108 43.4835V44.5982H134.834C134.412 44.5982 134.091 44.7053 133.871 44.9194C133.657 45.1335 133.55 45.5051 133.55 46.0341V48.7736H132.473V43.5685H133.55V44.3242ZM138.724 43.4835C139.134 43.4835 139.499 43.5685 139.82 43.7386C140.148 43.9086 140.403 44.1605 140.585 44.4943C140.768 44.8281 140.859 45.2311 140.859 45.7034V48.7736H139.792V45.864C139.792 45.398 139.675 45.0422 139.442 44.7966C139.209 44.5447 138.891 44.4187 138.488 44.4187C138.085 44.4187 137.764 44.5447 137.525 44.7966C137.292 45.0422 137.175 45.398 137.175 45.864V48.7736H136.098V43.5685H137.175V44.1637C137.351 43.9495 137.575 43.7826 137.846 43.663C138.123 43.5433 138.416 43.4835 138.724 43.4835ZM142.781 42.8789C142.586 42.8789 142.422 42.8128 142.29 42.6805C142.157 42.5483 142.091 42.3846 142.091 42.1893C142.091 41.9941 142.157 41.8304 142.29 41.6981C142.422 41.5659 142.586 41.4997 142.781 41.4997C142.97 41.4997 143.13 41.5659 143.263 41.6981C143.395 41.8304 143.461 41.9941 143.461 42.1893C143.461 42.3846 143.395 42.5483 143.263 42.6805C143.13 42.8128 142.97 42.8789 142.781 42.8789ZM143.31 43.5685V48.7736H142.233V43.5685H143.31ZM147.35 43.4835C147.759 43.4835 148.125 43.5685 148.446 43.7386C148.773 43.9086 149.028 44.1605 149.211 44.4943C149.393 44.8281 149.485 45.2311 149.485 45.7034V48.7736H148.417V45.864C148.417 45.398 148.301 45.0422 148.068 44.7966C147.835 44.5447 147.517 44.4187 147.114 44.4187C146.711 44.4187 146.389 44.5447 146.15 44.7966C145.917 45.0422 145.801 45.398 145.801 45.864V48.7736H144.724V43.5685H145.801V44.1637C145.977 43.9495 146.201 43.7826 146.471 43.663C146.748 43.5433 147.041 43.4835 147.35 43.4835ZM152.956 43.4835C153.359 43.4835 153.714 43.5654 154.023 43.7291C154.338 43.8866 154.584 44.0849 154.76 44.3242V43.5685H155.846V48.8586C155.846 49.3372 155.745 49.7623 155.544 50.1339C155.342 50.5117 155.05 50.8077 154.665 51.0218C154.288 51.236 153.834 51.343 153.305 51.343C152.6 51.343 152.014 51.1761 151.548 50.8424C151.082 50.5149 150.818 50.0677 150.755 49.5009H151.822C151.904 49.7717 152.077 49.989 152.342 50.1528C152.612 50.3228 152.934 50.4078 153.305 50.4078C153.74 50.4078 154.089 50.2756 154.354 50.0111C154.624 49.7466 154.76 49.3624 154.76 48.8586V47.9895C154.577 48.2351 154.328 48.4429 154.014 48.613C153.705 48.7767 153.352 48.8586 152.956 48.8586C152.502 48.8586 152.087 48.7452 151.709 48.5185C151.337 48.2855 151.041 47.9643 150.821 47.555C150.607 47.1393 150.499 46.6701 150.499 46.1474C150.499 45.6247 150.607 45.1618 150.821 44.7588C151.041 44.3557 151.337 44.044 151.709 43.8236C152.087 43.5969 152.502 43.4835 152.956 43.4835ZM154.76 46.1663C154.76 45.8073 154.684 45.4956 154.533 45.2311C154.388 44.9666 154.196 44.7651 153.957 44.6265C153.718 44.488 153.459 44.4187 153.182 44.4187C152.905 44.4187 152.647 44.488 152.408 44.6265C152.168 44.7588 151.973 44.9572 151.822 45.2217C151.677 45.4799 151.605 45.7885 151.605 46.1474C151.605 46.5064 151.677 46.8213 151.822 47.0921C151.973 47.3629 152.168 47.5707 152.408 47.7155C152.653 47.8541 152.912 47.9234 153.182 47.9234C153.459 47.9234 153.718 47.8541 153.957 47.7155C154.196 47.577 154.388 47.3755 154.533 47.111C154.684 46.8402 154.76 46.5253 154.76 46.1663Z" fill="url(#paint4_linear_37_9651)"/>
<defs>
<linearGradient id="paint0_linear_37_9651" x1="32.5068" y1="0" x2="32.5068" y2="49.0017" gradientUnits="userSpaceOnUse">
<stop stop-color="#0087B3"/>
<stop offset="1" stop-color="#0B3A4B"/>
</linearGradient>
<linearGradient id="paint1_linear_37_9651" x1="32.3851" y1="34.2378" x2="32.3851" y2="59.7546" gradientUnits="userSpaceOnUse">
<stop stop-color="#0087B3"/>
<stop offset="1" stop-color="#0B3A4B"/>
</linearGradient>
<linearGradient id="paint2_linear_37_9651" x1="47.4949" y1="49.0015" x2="47.4949" y2="34.6018" gradientUnits="userSpaceOnUse">
<stop stop-color="#2C4B78"/>
<stop offset="1" stop-color="#162A3B"/>
</linearGradient>
<linearGradient id="paint3_linear_37_9651" x1="72.8342" y1="27" x2="191.834" y2="27" gradientUnits="userSpaceOnUse">
<stop stop-color="#0A93BA"/>
<stop offset="1" stop-color="#0B3A4B"/>
</linearGradient>
<linearGradient id="paint4_linear_37_9651" x1="114.834" y1="38.7736" x2="114.834" y2="52.7736" gradientUnits="userSpaceOnUse">
<stop stop-color="#0B3C4D"/>
<stop offset="1" stop-color="#0A91B8"/>
</linearGradient>
</defs>
</svg>
